HIERARCHY
ROOT Hips
{
	OFFSET 0.000000 0.000000 0.000000
	CHANNELS 6 Xposition Yposition Zposition Xrotation Yrotation Zrotation
	JOINT LeftUpLeg_virtual
	{
		OFFSET 0.000000 0.000000 0.000000
		CHANNELS 3 Xrotation Yrotation Zrotation
		JOINT LeftUpLeg
		{
			OFFSET 10.205400 -3.823500 0.155100
			CHANNELS 3 Xrotation Yrotation Zrotation
			JOINT LeftLeg
			{
				OFFSET 0.708757 -12.982077 0.567790
				CHANNELS 3 Xrotation Yrotation Zrotation
				JOINT LeftFoot
				{
					OFFSET -0.708756 -10.717838 -2.184338
					CHANNELS 3 Xrotation Yrotation Zrotation
					JOINT LeftToeBase
					{
						OFFSET 0.108149 -7.191104 7.560241
						CHANNELS 3 Xrotation Yrotation Zrotation
						JOINT LeftToe_End
						{
							OFFSET 0.070230 0.081724 4.490308
							CHANNELS 3 Xrotation Yrotation Zrotation
							End Site
							{
								OFFSET 0 0 0
							}
						}
					}
				}
			}
		}
	}
	JOINT RightUpLeg_virtual
	{
		OFFSET 0.000000 0.000000 0.000000
		CHANNELS 3 Xrotation Yrotation Zrotation
		JOINT RightUpLeg
		{
			OFFSET -10.205400 -3.823500 0.005500
			CHANNELS 3 Xrotation Yrotation Zrotation
			JOINT RightLeg
			{
				OFFSET -0.708756 -12.982134 0.610632
				CHANNELS 3 Xrotation Yrotation Zrotation
				JOINT RightFoot
				{
					OFFSET 0.708754 -10.717769 -1.945823
					CHANNELS 3 Xrotation Yrotation Zrotation
					JOINT RightToeBase
					{
						OFFSET -0.108140 -7.191069 7.372968
						CHANNELS 3 Xrotation Yrotation Zrotation
						JOINT RightToe_End
						{
							OFFSET -0.070227 0.081735 4.479403
							CHANNELS 3 Xrotation Yrotation Zrotation
							End Site
							{
								OFFSET 0 0 0
							}
						}
					}
				}
			}
		}
	}
	JOINT Spine_virtual
	{
		OFFSET 0.000000 0.000000 0.000000
		CHANNELS 3 Xrotation Yrotation Zrotation
		JOINT Spine
		{
			OFFSET 0.000000 6.876099 0.125700
			CHANNELS 3 Xrotation Yrotation Zrotation
			JOINT Spine1
			{
				OFFSET 0.000000 5.730043 0.104720
				CHANNELS 3 Xrotation Yrotation Zrotation
				JOINT Spine1_split
				{
					OFFSET 0.000000 5.730043 0.104720
					CHANNELS 3 Xrotation Yrotation Zrotation
					JOINT Spine2
					{
						OFFSET 0.000000 5.730043 0.104720
						CHANNELS 3 Xrotation Yrotation Zrotation
						JOINT Neck_virtual
						{
							OFFSET 0.000000 0.000000 0.000000
							CHANNELS 3 Xrotation Yrotation Zrotation
							JOINT Neck
							{
								OFFSET 0.000000 10.314075 0.188496
								CHANNELS 3 Xrotation Yrotation Zrotation
								JOINT Head
								{
									OFFSET 0.000000 7.643700 -2.377400
									CHANNELS 3 Xrotation Yrotation Zrotation
									JOINT HeadTop_End
									{
										OFFSET 0.000000 43.788605 -13.619600
										CHANNELS 3 Xrotation Yrotation Zrotation
										End Site
										{
											OFFSET 0 0 0
										}
									}
								}
							}
						}
						JOINT LeftShoulder_virtual
						{
							OFFSET 0.000000 0.000000 0.000000
							CHANNELS 3 Xrotation Yrotation Zrotation
							JOINT LeftShoulder
							{
								OFFSET 2.196100 4.412489 0.087492
								CHANNELS 3 Xrotation Yrotation Zrotation
								JOINT LeftShoulder_split
								{
									OFFSET 2.196100 4.412489 0.087492
									CHANNELS 3 Xrotation Yrotation Zrotation
									JOINT LeftArm
									{
										OFFSET 8.771219 -2.981674 -0.026999
										CHANNELS 3 Xrotation Yrotation Zrotation
										JOINT LeftForeArm
										{
											OFFSET 8.512804 0.000000 -0.000000
											CHANNELS 3 Xrotation Yrotation Zrotation
											JOINT LeftHand
											{
												OFFSET 18.484802 0.000000 -0.000000
												CHANNELS 3 Xrotation Yrotation Zrotation
												End Site
												{
													OFFSET 0 0 0
												}
											}
										}
									}
								}
							}
						}
						JOINT RightShoulder_virtual
						{
							OFFSET 0.000000 0.000000 0.000000
							CHANNELS 3 Xrotation Yrotation Zrotation
							JOINT RightShoulder
							{
								OFFSET -2.196100 4.412496 0.070690
								CHANNELS 3 Xrotation Yrotation Zrotation
								JOINT RightShoulder_split
								{
									OFFSET -2.196100 4.412496 0.070690
									CHANNELS 3 Xrotation Yrotation Zrotation
									JOINT RightArm
									{
										OFFSET -8.771282 -2.981682 -0.094208
										CHANNELS 3 Xrotation Yrotation Zrotation
										JOINT RightForeArm
										{
											OFFSET -8.494598 0.000000 0.000000
											CHANNELS 3 Xrotation Yrotation Zrotation
											JOINT RightHand
											{
												OFFSET -18.483803 0.000000 0.000001
												CHANNELS 3 Xrotation Yrotation Zrotation
												End Site
												{
													OFFSET 0 0 0
												}
											}
										}
									}
								}
							}
						}
					}
				}
			}
		}
	}
}
MOTION
Frames: 10
Frame Time: 0.03333333
1.829800 30.509291 -2.087772 0.000000 0.000000 0.000000 2.171016 8.665360 -0.284831 -37.261257 5.497529 18.787363 58.133953 13.453056 -3.308921 3.341062 11.633326 -19.984046 -14.049097 0.269952 -8.281442 0.000000 0.000000 0.000000 2.135994 7.533682 0.107097 -22.935690 -5.702241 1.275979 44.110420 -1.687709 0.934404 -27.356395 -9.775391 1.336440 9.416142 5.632864 -18.473493 0.000000 0.000000 0.000000 2.632384 10.140916 -0.473527 8.497238 -1.101537 5.270990 4.667753 -0.174864 1.081209 0.025998 -0.310752 -0.014412 0.000000 0.000000 0.000000 6.305742 3.036840 1.008438 -1.515322 0.502788 -3.298066 -18.623634 -20.110870 -11.780970 0.000000 0.000000 0.000000 5.105627 1.666014 0.085837 3.455288 -9.274173 -10.075962 2.859822 -1.379102 -0.882287 -15.418008 -3.306092 -67.738189 0.594598 -35.525180 -1.614644 0.000000 0.000000 0.000000 7.181541 1.979497 0.692796 0.506173 14.154507 7.673503 0.340442 -0.956894 2.319641 -9.549328 -3.963782 64.553607 -9.098794 23.954594 10.091321 0.000000 0.000000 0.000000 
1.744586 30.542362 -1.611399 0.000000 0.000000 0.000000 1.945480 7.937834 0.067367 -37.745285 6.549111 17.789638 56.098840 13.649756 -2.407992 2.640889 10.835393 -18.710562 -14.668361 0.282852 -7.833314 0.000000 0.000000 0.000000 2.514907 6.824507 0.481185 -22.608817 -6.175347 1.231728 43.959156 -1.671406 0.981069 -27.825923 -9.697608 1.884488 8.553915 5.706148 -18.979270 0.000000 0.000000 0.000000 2.895498 10.153314 -0.205822 8.263946 -1.076902 5.293378 4.572547 -0.133777 1.103321 0.008681 -0.357817 0.042918 0.000000 0.000000 0.000000 6.330886 3.073890 1.012105 -1.369728 0.290956 -3.361202 -18.832032 -20.931642 -11.484908 0.000000 0.000000 0.000000 5.080382 1.697914 0.088940 3.476282 -9.237439 -10.309046 2.871343 -1.376471 -0.825112 -15.842591 -3.247081 -68.119095 0.516755 -35.585962 -1.690188 0.000000 0.000000 0.000000 7.114525 2.000971 0.736038 0.511562 13.995371 7.953591 0.074372 -1.242574 1.748528 -9.395307 -4.752764 64.284477 -9.031863 23.594456 10.079721 0.000000 0.000000 0.000000 
1.669281 30.702930 -1.115526 0.000000 0.000000 0.000000 1.951742 7.306675 0.877494 -38.531033 7.732679 15.914675 52.956161 12.572720 -1.105916 2.831139 8.463711 -18.200113 -13.859144 0.030929 -6.547658 0.000000 0.000000 0.000000 2.913815 6.508368 1.205490 -21.518683 -6.076375 1.015606 43.336119 -1.808919 1.022217 -28.975209 -9.507103 2.014616 8.021105 5.673860 -18.374449 0.000000 0.000000 0.000000 3.061676 10.154557 0.474836 7.940641 -1.096767 5.151047 4.491211 -0.052917 1.091763 0.019205 -0.333947 0.066153 0.000000 0.000000 0.000000 6.279667 3.172135 0.962748 -1.091291 -0.041437 -3.546427 -18.857319 -22.627922 -10.915527 0.000000 0.000000 0.000000 5.021919 1.762915 0.079455 3.440949 -9.096419 -10.682850 2.636375 -1.212870 -0.741225 -15.796438 -3.431916 -68.601600 0.545031 -35.753073 -1.686685 0.000000 0.000000 0.000000 7.004882 2.071837 0.739932 0.487914 13.595573 8.290912 -0.125178 -1.275006 1.142469 -9.106387 -5.691105 63.668373 -9.011691 23.229357 10.207129 0.000000 0.000000 0.000000 
1.632050 30.941164 -0.606653 0.000000 0.000000 0.000000 2.257658 7.008528 1.996541 -39.236578 9.167285 13.474432 48.807388 10.900786 0.141163 3.232370 5.459011 -17.387689 -11.235870 -0.386283 -4.747090 0.000000 0.000000 0.000000 3.383573 6.414672 2.191838 -20.056791 -5.471051 0.504091 42.604664 -1.908241 1.074134 -30.266361 -9.201825 1.976395 7.693838 5.577507 -16.705391 0.000000 0.000000 0.000000 3.184709 9.947727 1.437390 7.576035 -1.187105 4.872374 4.446261 0.048589 1.054079 0.052923 -0.274431 0.048128 0.000000 0.000000 0.000000 6.157566 3.297331 0.881580 -0.730400 -0.427894 -3.802234 -18.512719 -24.901063 -10.242391 0.000000 0.000000 0.000000 4.943376 1.833593 0.070008 3.355305 -8.761250 -11.173656 2.224545 -0.929769 -0.462215 -15.225409 -3.877961 -69.047318 0.605460 -35.939294 -1.668073 0.000000 0.000000 0.000000 6.870970 2.167714 0.711225 0.432360 12.977738 8.633388 -0.335328 -1.086822 0.860792 -8.624687 -6.523074 62.736831 -9.017556 22.934886 10.426200 0.000000 0.000000 0.000000 
1.647347 31.200077 -0.087637 0.000000 0.000000 0.000000 2.851483 6.918714 3.224873 -40.174275 10.685915 10.942392 43.838613 9.358180 1.011440 3.442507 2.618581 -15.530095 -6.756112 -0.754025 -2.985946 0.000000 0.000000 0.000000 4.064028 6.416697 3.263960 -18.519033 -4.470978 -0.329737 41.895947 -1.752426 1.134279 -31.546581 -8.671893 2.005501 7.540403 5.438554 -14.192284 0.000000 0.000000 0.000000 3.473318 9.528747 2.519073 7.158126 -1.338509 4.491598 4.438601 0.146841 0.997834 0.081895 -0.202562 -0.015581 0.000000 0.000000 0.000000 5.995313 3.421630 0.797885 -0.384659 -0.797776 -4.090254 -17.732517 -27.272445 -9.638370 0.000000 0.000000 0.000000 4.844818 1.902327 0.070981 3.238452 -8.166447 -11.736069 1.631636 -0.709547 -0.120042 -14.238428 -4.471393 -69.325600 0.574890 -36.188934 -1.684193 0.000000 0.000000 0.000000 6.723538 2.268031 0.666135 0.340722 12.206615 8.975717 -0.526142 -0.769989 0.874811 -8.001241 -7.363597 61.592870 -9.075489 22.923302 10.730565 0.000000 0.000000 0.000000 
1.675496 31.428709 0.466887 0.000000 0.000000 0.000000 3.662104 6.739401 4.362546 -41.230474 11.918358 8.815998 38.453053 7.936384 1.486888 3.841743 0.274316 -13.016150 -1.527254 -0.993066 -1.385881 0.000000 0.000000 0.000000 4.933869 6.476257 4.299715 -17.139566 -3.315027 -1.418901 41.228422 -1.287262 1.192299 -32.846383 -7.934799 2.213123 7.407151 5.321959 -11.277991 0.000000 0.000000 0.000000 3.990980 8.986145 3.543898 6.704275 -1.490213 4.028037 4.456041 0.253275 0.922260 0.092150 -0.099720 -0.085137 0.000000 0.000000 0.000000 5.817971 3.537728 0.711845 -0.151414 -1.079968 -4.351224 -16.578918 -29.227998 -9.288060 0.000000 0.000000 0.000000 4.765594 1.980753 0.079620 3.111722 -7.337312 -12.333984 1.128189 -0.573282 0.298584 -13.054531 -5.023891 -69.317029 0.452223 -36.589077 -1.712565 0.000000 0.000000 0.000000 6.574751 2.380004 0.611350 0.201579 11.337087 9.348975 -0.545677 -0.338016 1.050251 -7.250385 -8.318752 60.415284 -9.200250 23.363396 11.102191 0.000000 0.000000 0.000000 
1.692569 31.617514 1.090466 0.000000 0.000000 0.000000 4.599811 6.376322 5.253833 -42.414594 12.730018 7.327382 33.351185 6.716759 1.559545 4.731857 -1.398908 -10.368664 3.282943 -1.072338 -0.246300 0.000000 0.000000 0.000000 5.956613 6.337133 5.210350 -15.849693 -2.248504 -2.484212 40.580951 -0.656267 1.247298 -34.436813 -7.189278 2.645823 7.363596 5.180901 -8.505466 0.000000 0.000000 0.000000 4.702045 8.232425 4.363672 6.200162 -1.549565 3.539786 4.489093 0.411283 0.844920 0.111835 0.032363 -0.079370 0.000000 0.000000 0.000000 5.629736 3.663585 0.625948 -0.093448 -1.266418 -4.518056 -15.194774 -30.522736 -9.199850 0.000000 0.000000 0.000000 4.669494 2.088985 0.072661 2.986408 -6.441481 -12.886366 0.926112 -0.591961 0.798736 -12.000784 -5.176257 -68.897436 0.396232 -37.124892 -1.631166 0.000000 0.000000 0.000000 6.411900 2.517345 0.538461 0.023315 10.385656 9.807001 -0.477635 0.247896 1.089232 -6.353854 -9.476146 59.488899 -9.375410 24.200504 11.503312 0.000000 0.000000 0.000000 
1.723359 31.762432 1.731724 0.000000 0.000000 0.000000 5.500208 5.774258 5.792516 -43.190011 13.164670 6.393100 28.844555 5.752705 1.459687 5.671296 -2.227991 -7.848557 6.109057 -1.052735 0.588945 0.000000 0.000000 0.000000 6.840519 5.665211 5.831467 -14.522135 -1.498291 -3.320050 40.016244 0.037861 1.343523 -36.267666 -6.629835 3.348374 7.386824 5.016461 -6.306969 0.000000 0.000000 0.000000 5.542084 7.382596 4.793701 5.646722 -1.421674 3.090148 4.543188 0.653987 0.754006 0.108613 0.133539 -0.031171 0.000000 0.000000 0.000000 5.437590 3.828313 0.520530 -0.254372 -1.384935 -4.548483 -13.706458 -31.117830 -9.253985 0.000000 0.000000 0.000000 4.555712 2.241980 0.028936 2.860653 -5.614955 -13.303535 0.934097 -0.692343 1.120486 -11.239394 -4.790384 -68.002927 0.598508 -37.755489 -1.297925 0.000000 0.000000 0.000000 6.235747 2.701044 0.428561 -0.198502 9.387474 10.400838 -0.253454 0.893346 0.821863 -5.337481 -10.798924 59.012513 -9.578533 25.386792 11.904301 0.000000 0.000000 0.000000 
1.783656 31.854088 2.401834 0.000000 0.000000 0.000000 6.266360 4.873831 5.935137 -42.934118 13.386269 5.809593 25.074681 5.054827 1.360066 5.537939 -2.095279 -5.501081 6.671368 -1.001480 1.334830 0.000000 0.000000 0.000000 7.341921 4.512759 6.110155 -13.037292 -1.309982 -3.903182 39.271371 0.753826 1.522866 -38.074586 -6.518277 4.644199 6.855344 4.862319 -4.850500 0.000000 0.000000 0.000000 6.216796 6.594191 4.839360 5.151074 -1.098478 2.698534 4.620217 0.962903 0.643172 0.087955 0.163887 0.026763 0.000000 0.000000 0.000000 5.255262 4.046432 0.376999 -0.650174 -1.429167 -4.410845 -12.169132 -31.171781 -9.311175 0.000000 0.000000 0.000000 4.400383 2.444587 -0.072735 2.695838 -4.981912 -13.577881 1.084559 -0.781402 1.097280 -10.988343 -3.923934 -66.560378 1.213301 -38.308967 -0.658331 0.000000 0.000000 0.000000 6.054831 2.932711 0.279576 -0.450938 8.291489 11.043014 0.067013 1.483708 0.225082 -4.253129 -11.965432 59.009945 -9.749655 26.795160 12.238270 0.000000 0.000000 0.000000 
1.884227 31.882744 3.122824 0.000000 0.000000 0.000000 6.794495 3.900440 5.727554 -42.280558 13.508821 5.692414 22.368357 4.635338 1.268271 4.339442 -1.208373 -3.792750 6.587312 -0.877710 1.545874 0.000000 0.000000 0.000000 7.454736 3.280889 5.999798 -10.941508 -1.713130 -4.096293 37.940082 1.461990 1.768058 -39.798098 -6.849042 6.328971 5.830532 4.726156 -3.969542 0.000000 0.000000 0.000000 6.605263 5.889773 4.572316 4.809741 -0.640967 2.378564 4.711405 1.297306 0.505746 0.061656 0.140319 0.062841 0.000000 0.000000 0.000000 5.081796 4.310478 0.200451 -1.292724 -1.442663 -4.126598 -10.622872 -30.785985 -9.268764 0.000000 0.000000 0.000000 4.190172 2.680893 -0.232309 2.461525 -4.606615 -13.701790 1.286263 -0.693308 0.777822 -11.212933 -2.626806 -64.459951 2.217069 -38.565359 0.244090 0.000000 0.000000 0.000000 5.874391 3.192444 0.117622 -0.719446 7.120608 11.648941 0.261261 1.993926 -0.408774 -3.164884 -12.623120 59.326955 -9.827723 28.353905 12.423476 0.000000 0.000000 0.000000 
